# xmcd
#
# Track frame offsets: 
#        150
#        17805
#        36512
#        55922
#        75175
#        109422
#        134710
#
# Disc length: 2144 seconds
#
# Revision: 2
# Processed by: cddbd v1.5.2PL0 Copyright (c) Steve Scherf et al.
# Submitted via: ExactAudioCopyFreeDBPlugin 1.0
#
DISCID=5c085e07
DTITLE=John Tropea - To Touch You Again
DYEAR=1979
DGENRE=Fusion
TTITLE0=Livin In The Jungle
TTITLE1=In This Time
TTITLE2=Look What They've Done To My Song
TTITLE3=You're My Every Need
TTITLE4=To Touch You Again-Lady Blue
TTITLE5=Yours Next To Mine
TTITLE6=Do You Wanna Be Loved
EXTD=
EXTT0=
EXTT1=
EXTT2=
EXTT3=
EXTT4=\n
EXTT5=
EXTT6=
PLAYORDER=
